<svg width="36" height="36" viewBox="0 0 36 36" fill="none" xmlns="http://www.w3.org/2000/svg">
<path d="M17.396 25.479C17.1869 25.4857 16.9824 25.4156 16.8207 25.2816L10.4522 20.0223C10.1504 19.7752 9.90722 19.4633 9.74013 19.1093C9.57304 18.7553 9.48633 18.3682 9.48633 17.9761C9.48633 17.584 9.57304 17.1968 9.74013 16.8428C9.90722 16.4888 10.1504 16.1769 10.4522 15.9298L16.8207 10.7053C16.9079 10.629 17.0093 10.571 17.119 10.5349C17.2288 10.4988 17.3446 10.4852 17.4596 10.4951C17.5747 10.5049 17.6865 10.5379 17.7887 10.5922C17.8908 10.6465 17.9811 10.7209 18.0543 10.811C18.1274 10.9011 18.1819 11.0051 18.2145 11.1168C18.2471 11.2286 18.2571 11.3458 18.244 11.4615C18.2309 11.5772 18.1949 11.6891 18.1382 11.7906C18.0814 11.892 18.0052 11.9809 17.9138 12.0521L11.5452 17.3056C11.4416 17.3905 11.358 17.4975 11.3003 17.619C11.2426 17.7404 11.2123 17.8733 11.2116 18.008C11.2115 18.142 11.2415 18.2742 11.2993 18.3948C11.3571 18.5155 11.4411 18.6214 11.5452 18.7046L17.9138 23.9639C18.0514 24.0777 18.1507 24.2316 18.1982 24.4045C18.2458 24.5775 18.2392 24.7611 18.1793 24.9301C18.1195 25.0991 18.0094 25.2454 17.864 25.3488C17.7186 25.4523 17.5451 25.5079 17.3672 25.508L17.396 25.479Z" fill="white"/>
<path d="M25.6519 18.844H15.0377C14.8089 18.844 14.5894 18.7523 14.4276 18.589C14.2657 18.4257 14.1748 18.2042 14.1748 17.9733C14.1748 17.7423 14.2657 17.5209 14.4276 17.3576C14.5894 17.1943 14.8089 17.1025 15.0377 17.1025H25.6519C25.8808 17.1025 26.1003 17.1943 26.2621 17.3576C26.424 17.5209 26.5149 17.7423 26.5149 17.9733C26.5149 18.2042 26.424 18.4257 26.2621 18.589C26.1003 18.7523 25.8808 18.844 25.6519 18.844Z" fill="white"/>
</svg>
